<svg xmlns="http://www.w3.org/2000/svg" viewBox="0 0 439.4 207.4" enable-background="new 0 0 439.4 207.4"><radialGradient id="a" cx="344.656" cy="115.371" r="80.85" fx="342.677" fy="119.53" gradientUnits="userSpaceOnUse"><stop offset="0" stop-color="#fff"/><stop offset=".19" stop-color="#FCE800"/><stop offset=".859" stop-color="#EC8F27"/></radialGradient><path fill="url(#a)" fill-rule="evenodd" d="M338 63.6l9.6-33.6 1.4.2 1 35.2 18-29.8 1.6.8-8.4 33.8L386.7 46l1.3 1.2-17.2 30.6 31-16.4 1 1.2-24.6 25.2 34.2-7.8.8 1.4-30.4 17.8 35.2 1.3v1.5l-34 9.4 33.8 10v1.4l-35.2.6 29.8 18.6-.8 1.6-33.9-8.6 23.9 25.4-.8 1.4-30.4-17.4 16.3 30.8-1.5 1.2-25-24.6 8.2 33.8-1.6 1-17.8-30.2-.6 34.8-1.8.4L337 158l-10 33.6-1.8-.4v-34.8l-1-.4-19.4 29.2 8.4-33.8-25.6 24-1.4-1.2 17.4-30.4-31.2 16.2-1-1.2L296 134l-34.4 7.6-.4-1.4 30.4-17.8-34.8-1.4-.6-1.4 33.7-9.6-33.3-9.8.2-1.6 35-.6-29.6-18 .2-1.6 34.3 8.6-24.3-25.6 1.2-1.4 30.8 16.8-16.8-30.4 1-1.2 25.8 24.6-8.4-34.2-.3-.6 20.2 30.4.5-35.4h2z" clip-rule="evenodd"/><path fill="#F68B1F" d="M432.9 176.9c0-33.6-27.2-60.8-60.8-60.8-13.6 0-26.1 4.4-36.2 11.9 1.3-6.4 1.9-13 1.9-19.7 0-55.9-45.3-101.2-101.3-101.2-44.5 0-82.3 28.7-95.9 68.7-7.6-5.7-17.1-9.1-27.3-9.1-25.2 0-45.6 20.4-45.6 45.6 0 3.9.5 7.7 1.4 11.3-34.9 1-62.9 29.6-62.9 64.8 0 4.1.4 8.1 1.1 12H428c3.3-7.3 4.9-15.3 4.9-23.5z"/><linearGradient id="b" x1="236.733" x2="236.733" y1="87.311" y2="8.01" gradientUnits="userSpaceOnUse"><stop offset="0" stop-color="#F68B1F"/><stop offset="1" stop-color="#fff"/></linearGradient><path fill="url(#b)" fill-rule="evenodd" d="M326 108.4c0 49.3-40.1 80.5-89.4 80.5-49.3 0-89.2-31.2-89.2-80.5s40-89.3 89.3-89.3c49.4 0 89.3 40 89.3 89.3" clip-rule="evenodd"/><path fill="#F68B1F" fill-rule="evenodd" d="M312.4 109c0 30.2-34.1 54.6-76.2 54.6S160 139.1 160 109c0-30.2 34.1-54.6 76.2-54.6 42 0 76.2 24.4 76.2 54.6" clip-rule="evenodd"/><linearGradient id="c" x1="94.041" x2="119.259" y1="61.513" y2="86.731" gradientUnits="userSpaceOnUse" gradientTransform="matrix(.964 .265 -.265 .964 21.18 -3.77)"><stop offset="0" stop-color="#fff"/><stop offset=".048" stop-color="#FEF6ED"/><stop offset=".257" stop-color="#FBD0A5"/><stop offset=".444" stop-color="#F9B26B"/><stop offset=".603" stop-color="#F79D42"/><stop offset=".728" stop-color="#F69028"/><stop offset=".803" stop-color="#F68B1F"/></linearGradient><circle cx="113.7" cy="112.5" r="33.7" fill="url(#c)"/><path fill="#F68B1F" fill-rule="evenodd" d="M141.1 99.6c5.7 9.9-1.4 24.7-16 33.1-14.5 8.4-31 7.2-36.7-2.7-5.7-9.9 1.4-24.7 16-33.1 14.6-8.4 31-7.2 36.7 2.7" clip-rule="evenodd"/><linearGradient id="d" x1="11.246" x2="106.624" y1="88.281" y2="235.133" gradientUnits="userSpaceOnUse"><stop offset="0" stop-color="#fff"/><stop offset=".048" stop-color="#FEF6ED"/><stop offset=".257" stop-color="#FBD0A5"/><stop offset=".444" stop-color="#F9B26B"/><stop offset=".603" stop-color="#F79D42"/><stop offset=".728" stop-color="#F69028"/><stop offset=".803" stop-color="#F68B1F"/></linearGradient><path fill="url(#d)" d="M124.3 188.2c0-29.4-23.8-53.2-53.2-53.2-29.4 0-53.2 23.8-53.2 53.2 0 .1 0 .2 0 .3h106.4c0-.1 0-.2 0-.3z"/><linearGradient id="e" x1="389.936" x2="375.302" y1="125.283" y2="168.177" gradientUnits="userSpaceOnUse"><stop offset="0" stop-color="#fff"/><stop offset=".048" stop-color="#FEF6ED"/><stop offset=".257" stop-color="#FBD0A5"/><stop offset=".444" stop-color="#F9B26B"/><stop offset=".603" stop-color="#F79D42"/><stop offset=".728" stop-color="#F69028"/><stop offset=".803" stop-color="#F68B1F"/></linearGradient><path fill="url(#e)" d="M421.2 176.3c0-26.8-21.7-48.5-48.5-48.5s-48.5 21.7-48.5 48.5c0 3.8.4 7.4 1.3 11H420c.7-3.5 1.2-7.2 1.2-11z"/><linearGradient id="f" x1="220.652" x2="220.652" y1="144.88" y2="191.754" gradientUnits="userSpaceOnUse"><stop offset="0" stop-color="#F68B1F"/><stop offset=".531" stop-color="#CB672F"/><stop offset="1" stop-color="#A1453F"/></linearGradient><path fill="url(#f)" d="M423.2 189l-1.8-3.6-2-3.4-2.8-4.4-2.8-3.6-3.4-4.2-3.4-3.6-4-3.8-3.8-3.2-4.2-3-4.2-2.6-4.6-2.6-4-2-4-1.6-3.6-1-3.6-.8-3.6-.6-4.2-.4-274.8.6-4.4.2-4.4.2-4.8.6-4 .8-5.2 1.2-3.6 1.2-3.8 1.4-3.8 1.4-4.8 2.4-3.6 1.8-4.6 3-4.2 3.2-4.4 3.6L29 170l-3 3.6-3.2 4.2-2.4 4.2-1.8 3.6-1 3.4-.7 2.9h407.5z"/><radialGradient id="g" cx="276.776" cy="139.446" r="108.216" fx="343.904" fy="119.827" gradientUnits="userSpaceOnUse"><stop offset="0" stop-color="#fff"/><stop offset=".133" stop-color="#FCE800"/><stop offset=".859" stop-color="#EC8F27"/></radialGradient><path fill="url(#g)" fill-rule="evenodd" d="M344 120l36.8 48.2-1.4 1-43-38.6-165 30-.2-1.6 153.4-35.2L240.2 95l1-1.2z" clip-rule="evenodd"/></svg>