<svg xmlns="http://www.w3.org/2000/svg" viewBox="0 0 1110.8 195.2" enable-background="new 0 0 1110.8 195.2"><g fill="#fff"><path d="M958 84.5h-22.3l-21.9 39.6h-29.4V84.5h-15.2v47.4h56l5-9h34.1l5.2 9h15.4L958 84.5zM933.5 116L947 91.4h.2l13.6 24.6h-27.3zM1031.9 116.1c11.7-1.2 16.2-4.9 16.2-15.3 0-13.3-7-16.3-28.1-16.3h-35v47.4h15.2V92.2h19.8c11.4-.1 13 1.8 13 8.5 0 6.4-2 7.7-11.9 7.9H1004l27.5 23.1h19.2l-18.8-15.6zM1070.4 104.1h37v7.5h-37v12.6h39.3v7.8h-54.5V84.5h54.2v7.8h-39v11.8z"/></g><path fill="#fff" d="M522.5 122.9h-28.8c-11.8 0-15.4-6.3-15.4-12.4V97.6c0-9.1 5-11.3 18.3-11.3h30.7v-8.9h-30.7c-25.1 0-35.8 5.5-35.8 20.3v12.9c0 11.3 5.3 21.4 32.8 21.4h33.6v-8.9l-4.7-.2zM548.3 124h36.9v7.8h-52.1V84.4h15.2V124zM651.7 101.2V114c0 15.2-9.8 18.1-33.7 18.1-24.5 0-33.4-2.5-33.4-18.1v-12.8c0-14.7 8.3-17.3 33.4-17.3 22.7 0 33.7 2.1 33.7 17.3zm-52 0V114c0 9.4 3.1 10.3 18.2 10.3 13.8 0 18.5-1.1 18.5-10.3v-12.8c.3-8.9-5.1-9.5-18.5-9.5-16.3 0-17.8 2-18.2 9.5zM723 84.3V118c0 13.2-13.8 14.1-33 14.1-18.5 0-32.8-.8-32.8-14.1V84.3h15.2V118c0 4.9 3 6.3 17.6 6.3 14 0 17.8-1.2 17.8-6.3V84.3H723zM731.1 84.4h37.7c21.8 0 31.1 4.7 31.1 17.6v11.2c0 9.9-4.6 18.6-28.6 18.6H731V84.4zm40.2 39.6c10.2 0 13.4-5.5 13.4-10.8V102c0-7.9-4.3-9.9-15.9-9.9h-22.6V124h25.1zM822.8 101.1h39.9v8.5h-39.9v22.2h-17.2V78h59.2v8.8h-42v14.3z"/><radialGradient id="a" cx="339.27" cy="109.271" r="80.85" fx="337.291" fy="113.43" gradientUnits="userSpaceOnUse"><stop offset="0" stop-color="#fff"/><stop offset=".19" stop-color="#FCE800"/><stop offset=".859" stop-color="#EC8F27"/></radialGradient><path fill="url(#a)" fill-rule="evenodd" d="M332.6 57.5l9.6-33.6 1.4.2 1 35.2 18-29.8 1.6.8-8.4 33.8 25.5-24.2 1.3 1.2-17.2 30.6 31-16.4 1 1.2-24.6 25.2 34.2-7.8.8 1.4-30.4 17.8 35.2 1.3v1.5l-34 9.4 33.8 10v1.4l-35.2.6 29.8 18.6-.8 1.6-33.9-8.6 23.9 25.4-.8 1.4-30.4-17.4 16.3 30.8-1.5 1.2-25-24.6 8.2 33.8-1.6 1-17.8-30.2-.5 34.8-1.9.4-9.6-33.6-10 33.6-1.8-.4v-34.8l-1-.4-19.4 29.2 8.4-33.8-25.6 24-1.4-1.2 17.4-30.4-31.2 16.2-1-1.2 24.6-24.8-34.4 7.6-.4-1.4 30.4-17.8-34.8-1.4-.6-1.4 33.8-9.6-33.4-9.8.2-1.6 35-.6-29.6-18 .2-1.6 34.3 8.6L267 55.3l1.2-1.4L299 70.7l-16.8-30.4 1-1.2L309 63.7l-8.4-34.2-.3-.6 20.3 30.4.4-35.4h2z" clip-rule="evenodd"/><path fill="#F68B1F" d="M427.5 170.7c0-33.6-27.2-60.8-60.8-60.8-13.6 0-26.1 4.4-36.2 11.9 1.3-6.4 1.9-13 1.9-19.7C332.5 46.3 287.2 1 231.3 1c-44.5 0-82.3 28.7-95.9 68.7-7.6-5.7-17.1-9.1-27.3-9.1-25.2 0-45.6 20.4-45.6 45.6 0 3.9.5 7.7 1.4 11.3C29 118.5 1 147.1 1 182.2c0 4.1.4 8.1 1.1 12h420.7c3.1-7.2 4.7-15.2 4.7-23.5z"/><linearGradient id="b" x1="231.347" x2="231.347" y1="81.211" y2="1.91" gradientUnits="userSpaceOnUse"><stop offset="0" stop-color="#F68B1F"/><stop offset="1" stop-color="#fff"/></linearGradient><path fill="url(#b)" fill-rule="evenodd" d="M320.7 102.3c0 49.3-40.1 80.5-89.4 80.5-49.3 0-89.2-31.2-89.2-80.5S182 13 231.3 13c49.4 0 89.4 40 89.4 89.3" clip-rule="evenodd"/><path fill="#F68B1F" fill-rule="evenodd" d="M307 102.9c0 30.2-34.1 54.6-76.2 54.6s-76.2-24.5-76.2-54.6c0-30.2 34.1-54.6 76.2-54.6S307 72.7 307 102.9" clip-rule="evenodd"/><linearGradient id="c" x1="101.177" x2="126.395" y1="148.042" y2="173.26" gradientUnits="userSpaceOnUse" gradientTransform="matrix(.964 .265 -.265 .964 31.869 -95.194)"><stop offset="0" stop-color="#fff"/><stop offset=".048" stop-color="#FEF6ED"/><stop offset=".257" stop-color="#FBD0A5"/><stop offset=".444" stop-color="#F9B26B"/><stop offset=".603" stop-color="#F79D42"/><stop offset=".728" stop-color="#F69028"/><stop offset=".803" stop-color="#F68B1F"/></linearGradient><circle cx="108.3" cy="106.4" r="33.7" fill="url(#c)"/><path fill="#F68B1F" fill-rule="evenodd" d="M135.7 93.5c5.7 9.9-1.4 24.7-16 33.1-14.5 8.4-31 7.2-36.7-2.7-5.7-9.9 1.4-24.7 16-33.1 14.6-8.4 31-7.2 36.7 2.7" clip-rule="evenodd"/><linearGradient id="d" x1="5.86" x2="101.238" y1="82.18" y2="229.032" gradientUnits="userSpaceOnUse"><stop offset="0" stop-color="#fff"/><stop offset=".048" stop-color="#FEF6ED"/><stop offset=".257" stop-color="#FBD0A5"/><stop offset=".444" stop-color="#F9B26B"/><stop offset=".603" stop-color="#F79D42"/><stop offset=".728" stop-color="#F69028"/><stop offset=".803" stop-color="#F68B1F"/></linearGradient><path fill="url(#d)" d="M118.9 182.1c0-29.4-23.8-53.2-53.2-53.2-29.4 0-53.2 23.8-53.2 53.2 0 .1 0 .2 0 .3h106.4c0-.1 0-.2 0-.3z"/><linearGradient id="e" x1="384.55" x2="369.915" y1="119.183" y2="162.077" gradientUnits="userSpaceOnUse"><stop offset="0" stop-color="#fff"/><stop offset=".048" stop-color="#FEF6ED"/><stop offset=".257" stop-color="#FBD0A5"/><stop offset=".444" stop-color="#F9B26B"/><stop offset=".603" stop-color="#F79D42"/><stop offset=".728" stop-color="#F69028"/><stop offset=".803" stop-color="#F68B1F"/></linearGradient><path fill="url(#e)" d="M415.8 170.2c0-26.8-21.7-48.5-48.5-48.5s-48.5 21.7-48.5 48.5c0 3.8.4 7.4 1.3 11h94.5c.7-3.5 1.2-7.2 1.2-11z"/><linearGradient id="f" x1="215.266" x2="215.266" y1="138.78" y2="185.654" gradientUnits="userSpaceOnUse"><stop offset="0" stop-color="#F68B1F"/><stop offset=".531" stop-color="#CB672F"/><stop offset="1" stop-color="#A1453F"/></linearGradient><path fill="url(#f)" d="M417.8 182.9l-1.8-3.6-2-3.4-2.8-4.4-2.8-3.6-3.4-4.2-3.4-3.6-4-3.8-3.8-3.2-4.2-3-4.2-2.6-4.6-2.6-4-2-4-1.6-3.6-1-3.6-.8-3.6-.6-4.2-.4-274.8.6-4.4.2-4.4.2-4.8.6-4 .8-5.2 1.2-3.6 1.2-3.8 1.4-3.8 1.4-4.8 2.4-3.6 1.8-4.6 3-4.2 3.2-4.4 3.6-3.8 3.8-3 3.6-3.2 4.2-2.4 4.2-1.8 3.6-1 3.4-.6 2.9H419z"/><radialGradient id="g" cx="271.39" cy="133.346" r="108.216" fx="338.517" fy="113.727" gradientUnits="userSpaceOnUse"><stop offset="0" stop-color="#fff"/><stop offset=".133" stop-color="#FCE800"/><stop offset=".859" stop-color="#EC8F27"/></radialGradient><path fill="url(#g)" fill-rule="evenodd" d="M338.6 113.9l36.8 48.2-1.4 1-43-38.6-165 30-.2-1.6 153.4-35.2-84.4-28.8 1-1.2z" clip-rule="evenodd"/></svg>