<svg xmlns="http://www.w3.org/2000/svg" viewBox="0 0 404.2 150.03"><defs><style>.cls-1,.cls-2{fill:none;}.cls-1{clip-rule:evenodd;}.cls-3{fill:#fff;}.cls-4{clip-path:url(#clip-path);}.cls-5{clip-path:url(#clip-path-2);}.cls-6{fill:#f28021;}.cls-7{clip-path:url(#clip-path-3);}.cls-8{fill:#faae41;}.cls-9{clip-path:url(#clip-path-5);}.cls-10{fill:#414142;}.cls-11{clip-path:url(#clip-path-7);}.cls-12{clip-path:url(#clip-path-9);}.cls-13{clip-path:url(#clip-path-11);}.cls-14{clip-path:url(#clip-path-13);}.cls-15{clip-path:url(#clip-path-15);}.cls-16{clip-path:url(#clip-path-17);}.cls-17{clip-path:url(#clip-path-19);}.cls-18{clip-path:url(#clip-path-21);}.cls-19{clip-path:url(#clip-path-23);}.cls-20{isolation:isolate;}.cls-21{clip-path:url(#clip-path-25);}.cls-22{clip-path:url(#clip-path-26);}</style><clipPath id="clip-path" transform="translate(9.58 9.58)"><path d="M326.67 80.2c1.14-3.95.72-7.6-1.2-10.27a10.4 10.4 0 0 0-8.25-4.1L249.8 65a1.34 1.34 0 0 1-1.06-.57 1.38 1.38 0 0 1-.14-1.22 1.8 1.8 0 0 1 1.57-1.2l68.05-.84c8.07-.37 16.8-6.93 19.87-14.93L342 36a2.33 2.33 0 0 0 .1-1.34 44.3 44.3 0 0 0-85.2-4.6 19.93 19.93 0 0 0-31.8 14 20.14 20.14 0 0 0 .52 7 28.38 28.38 0 0 0-27.22 32.5 1.32 1.32 0 0 0 1.3 1.14h124.48a1.64 1.64 0 0 0 1.57-1.18z" class="cls-1"/></clipPath><clipPath id="clip-path-2" transform="translate(9.58 9.58)"><path d="M-109.25-72.84h5458.87v642.1H-109.25z" class="cls-2"/></clipPath><clipPath id="clip-path-3" transform="translate(9.58 9.58)"><path d="M348.18 36.78c-.62 0-1.25 0-1.87 0a1.07 1.07 0 0 0-1 .78l-2.63 9.17c-1.14 3.94-.72 7.58 1.2 10.26a10.38 10.38 0 0 0 8.25 4.07l14.38.87a1.3 1.3 0 0 1 1 .56 1.37 1.37 0 0 1 .15 1.24 1.8 1.8 0 0 1-1.56 1.2l-14.94.86c-8.1.37-16.85 6.93-19.9 14.93l-1.04 2.87a.8.8 0 0 0 .75 1.1h51.4a1.37 1.37 0 0 0 1.3-1 36.94 36.94 0 0 0-35.47-46.92" class="cls-1"/></clipPath><clipPath id="clip-path-5" transform="translate(9.58 9.58)"><path d="M42.25 99.5h8.5v23.28h14.88v7.46H42.25V99.5z" class="cls-1"/></clipPath><clipPath id="clip-path-7" transform="translate(9.58 9.58)"><path d="M74.44 115v-.1c0-8.82 7.1-16 16.58-16s16.5 7.1 16.5 15.92v.1c0 8.82-7.12 16-16.6 16s-16.5-7.08-16.5-15.9m24.4 0v-.1c0-4.44-3.2-8.3-7.9-8.3s-7.76 3.77-7.76 8.2v.1c0 4.44 3.2 8.3 7.85 8.3s7.83-3.78 7.83-8.22" class="cls-1"/></clipPath><clipPath id="clip-path-9" transform="translate(9.58 9.58)"><path d="M117.94 116.75V99.48h8.64v17.1c0 4.43 2.24 6.54 5.66 6.54s5.66-2 5.66-6.33V99.46h8.64v17.05c0 9.93-5.66 14.28-14.4 14.28s-14.2-4.43-14.2-14.05" class="cls-1"/></clipPath><clipPath id="clip-path-11" transform="translate(9.58 9.58)"><path d="M159.56 99.5h11.85c11 0 17.35 6.32 17.35 15.2v.08c0 8.87-6.45 15.46-17.5 15.46h-11.68zm12 23.2c5.1 0 8.47-2.82 8.47-7.8v-.08c0-4.92-3.38-7.78-8.47-7.78h-3.47v15.64z" class="cls-1"/></clipPath><clipPath id="clip-path-13" transform="translate(9.58 9.58)"><path d="M201.1 99.5h24.57v7.46h-16.05v5.23h14.52v7.05h-14.52v10.98h-8.5V99.5z" class="cls-1"/></clipPath><clipPath id="clip-path-15" transform="translate(9.58 9.58)"><path d="M237.5 99.5h8.52v23.28h14.88v7.46h-23.4V99.5z" class="cls-1"/></clipPath><clipPath id="clip-path-17" transform="translate(9.58 9.58)"><path d="M283.14 99.27h8.2l13.07 31h-9.1l-2.3-5.52h-11.8l-2.2 5.5h-9zm7.46 18.85l-3.42-8.74-3.47 8.74z" class="cls-1"/></clipPath><clipPath id="clip-path-19" transform="translate(9.58 9.58)"><path d="M315.37 99.48h14.53c4.7 0 7.94 1.23 10 3.34a9.54 9.54 0 0 1 2.72 7.16v.1a9.73 9.73 0 0 1-6.3 9.44l7.32 10.72h-9.84l-6.18-9.32h-3.73v9.32h-8.53zm14.13 14.76c2.9 0 4.56-1.4 4.56-3.65v-.1c0-2.43-1.75-3.66-4.6-3.66h-5.58v7.38z" class="cls-1"/></clipPath><clipPath id="clip-path-21" transform="translate(9.58 9.58)"><path d="M354.9 99.5h24.7v7.24h-16.28v4.65h14.74v6.7h-14.74v4.9h16.5v7.23H354.9V99.5z" class="cls-1"/></clipPath><clipPath id="clip-path-23" transform="translate(9.58 9.58)"><path d="M0 98.87h32.77v32H0z" class="cls-2"/></clipPath><clipPath id="clip-path-25" transform="translate(9.58 9.58)"><path d="M0 97.75h34.5v34.5H0z" class="cls-2"/></clipPath><clipPath id="clip-path-26" transform="translate(9.58 9.58)"><path d="M23.6 118.56a7.52 7.52 0 0 1-7 4.6c-4.64 0-7.84-3.86-7.84-8.3v-.1c0-4.43 3.12-8.2 7.77-8.2a7.7 7.7 0 0 1 7.3 5.1h9c-1.44-7.33-7.86-12.8-16.2-12.8C7.1 98.86 0 106 0 114.86v.14c0 8.83 7 15.9 16.5 15.9a16.18 16.18 0 0 0 16.1-12.3z" class="cls-1"/></clipPath></defs><title>sept_logo2</title><path d="M351.7 44.95l3.58 1.7 3.35 5.84 22.44 18.4v23.13l-117.4.23-1.72-29.7 89.75-19.62z" class="cls-3"/><path d="M198.06 0H361.3v103.85H198.05z" class="cls-6"/><path d="M330.14 36.78h74.05v67.07h-74.07z" class="cls-8"/><path d="M42.25 99.5H84.8v49.9H42.25zm32.2-.63h52.23v51.15H74.44zm43.5.6h47.76v50.5h-47.75zm41.6.03h48.35v49.9h-48.34zm41.55 0h43.74v49.9H201.1zm36.4 0h42.56v49.9H237.5zm32.56-.23h53.52v50.14h-53.52zm45.32.2h47.42v49.94h-47.42zm39.52.03h44.08v49.9H354.9zM0 98.87h51.93v51.15H0z" class="cls-10"/></svg>