<svg xmlns="http://www.w3.org/2000/svg" viewBox="0 0 462 387" enable-background="new 0 0 462 387"><g fill="none" stroke="#3A82C2" stroke-width="4" stroke-miterlimit="10"><path d="M268.5 385C374.1 385 460 299.1 460 193.5S374.1 2 268.5 2 77 87.9 77 193.5 162.9 385 268.5 385zM268.5 364.7c94.4 0 171.2-76.8 171.2-171.2S362.9 22.3 268.5 22.3 97.3 99.1 97.3 193.5s76.8 171.2 171.2 171.2zM268.5 344.3c83.2 0 150.8-67.6 150.8-150.8S351.7 42.7 268.5 42.7s-150.8 67.6-150.8 150.8 67.6 150.8 150.8 150.8zM268.5 324c72 0 130.5-58.5 130.5-130.5S340.5 63 268.5 63 138 121.5 138 193.5 196.5 324 268.5 324zM268.5 303.6c60.8 0 110.1-49.4 110.1-110.1S329.3 83.4 268.5 83.4s-110.1 49.4-110.1 110.1 49.3 110.1 110.1 110.1zM268.5 283.3c49.5 0 89.8-40.2 89.8-89.8s-40.2-89.8-89.8-89.8-89.8 40.2-89.8 89.8 40.3 89.8 89.8 89.8z"/><circle cx="268.5" cy="193.5" r="69.4"/></g><path fill="#63A1D7" d="M229 278.5v17.8l10.5 4.6 10.5-4.6v-17.8h-21zm4 4h6v13.8l-6-2.3v-11.5z"/><g fill="#63A1D7"><path d="M51 261.5H38.4L27 269.3v-31.8h24zM21 237.5v24H10.9L0 269.3v-31.8z"/></g><g fill="#fff"><path d="M338 249.5h7.3l5.7 5.2v-18.2h-13zM354 236.5v13h6.6l5.4 5.2v-18.2z"/></g><path fill="#F68B20" d="M126.1 208.8c0-4.3-3.5-7.7-7.7-7.7-1.1 0-2.1.2-3.1.6-.2-8.6-7.3-15.5-15.9-15.5-7 0-12.9 4.5-15.1 10.8-1.2-.9-2.7-1.4-4.3-1.4-4 0-7.2 3.2-7.2 7.2 0 .6.1 1.2.2 1.8-.5 0-.9.1-1.4.1-2.7.6-4.7 3-4.7 5.9 0 3.3 2.7 6 6 6-.2 0 45.9 0 45.9 0 4.1-.4 7.3-3.7 7.3-7.8z"/><circle cx="147.6" cy="148.8" r="9.5" fill="#9BCA3E"/><path fill="none" stroke="#2F7BBF" stroke-width="2.28" stroke-miterlimit="10" d="M151.4 149.3c0 2.1-1.7 3.8-3.8 3.8s-3.8-1.7-3.8-3.8"/><path fill="#2F7BBF" d="M149.5 144.1h2.8v2.8h-2.8zM142.8 144.1h2.8v2.8h-2.8z"/><path fill="#fff" d="M134 255.5v46h46v-46h-46zm11 4h5v5h-5v-5zm-7 0h5v5h-5v-5zm38 38h-38v-28h38v28zm-22-5h-11v-18h11v18zm17-14h-11v-4h11v4zm0 7h-11v-4h11v4zm0 7h-11v-5h11v5z"/><path fill="none" stroke="#fff" stroke-width="5.343" stroke-miterlimit="10" d="M203.3 140.2l-4.5-7.3M185.1 172.2l-8.3-2M187.2 209.9l-7.3 4.6" stroke-linecap="round"/><circle cx="313.6" cy="203" r="12.9" fill="#fff"/><circle cx="220.1" cy="180.8" r="7.4" fill="#fff"/><path fill="#63A1D7" d="M282.8 198.9l2.4-9.5h-.3l2.2-8.7-61.4-33.7-6.4 27.8-2.8 12.1L210 215l70.4-4.5 2.1-9.1h-.1z"/><path fill="#143959" d="M278.48 176l42.1 9.72-8.05 34.88-42.1-9.7z"/><path fill="#63A1D7" d="M274.8 211.93l33.23 7.67-1.33 5.75-33.22-7.67z"/><path fill="#143959" d="M277.8 251.6l13.4-29.9 15.3 3.6-13.4 29.8z"/></svg>