<svg xmlns="http://www.w3.org/2000/svg" width="373" height="374"><title>Artwork</title><desc>Created with Sketch.</desc><g fill="none"><g><g><g><g><g id="Imported-Layers"><path fill="#3982C2" d="M186.5 373.58C83.7 373.58.07 289.95.07 187.15.07 84.35 83.7.72 186.5.72c102.8 0 186.43 83.63 186.43 186.43 0 102.8-83.63 186.43-186.43 186.43zm0-369C85.83 4.58 3.93 86.48 3.93 187.15c0 100.67 81.9 182.57 182.57 182.57 100.67 0 182.57-81.9 182.57-182.57 0-100.67-81.9-182.57-182.57-182.57z"/><path id="Fill-3" fill="#3982C2" d="M186.5 353.97c-92 0-166.82-74.83-166.82-166.82 0-92 74.83-166.82 166.82-166.82 92 0 166.82 74.83 166.82 166.82 0 92-74.83 166.82-166.82 166.82zm0-329.8c-89.86 0-162.97 73.12-162.97 162.98 0 89.86 73.1 162.97 162.97 162.97 89.86 0 162.97-73.1 162.97-162.97 0-89.86-73.1-162.97-162.97-162.97z"/><path id="Fill-4" fill="#3982C2" d="M186.5 334.37c-81.18 0-147.22-66.04-147.22-147.22 0-81.18 66.04-147.22 147.22-147.22 81.18 0 147.22 66.04 147.22 147.22 0 81.18-66.04 147.22-147.22 147.22zm0-290.58c-79.05 0-143.36 64.3-143.36 143.35S107.44 330.5 186.5 330.5c79.05 0 143.36-64.3 143.36-143.35S265.56 43.8 186.5 43.8z"/><path fill="#3982C2" d="M186.5 314.76c-70.37 0-127.6-57.25-127.6-127.6 0-70.38 57.23-127.62 127.6-127.62s127.6 57.24 127.6 127.6c0 70.38-57.24 127.62-127.6 127.62zm0-251.37c-68.24 0-123.76 55.5-123.76 123.75 0 68.24 55.52 123.76 123.76 123.76 68.24 0 123.76-55.5 123.76-123.75 0-68.24-55.52-123.76-123.76-123.76z"/><path fill="#3982C2" d="M186.5 295.16c-59.56 0-108-48.45-108-108 0-59.57 48.44-108.02 108-108.02s108 48.45 108 108c0 59.57-48.44 108.02-108 108.02zm0-212.16c-57.43 0-104.15 46.72-104.15 104.15 0 57.43 46.72 104.15 104.15 104.15 57.43 0 104.15-46.72 104.15-104.15C290.65 129.72 243.93 83 186.5 83z"/><path fill="#3982C2" d="M186.5 275.55c-48.75 0-88.4-39.65-88.4-88.4 0-48.75 39.65-88.4 88.4-88.4 48.75 0 88.4 39.65 88.4 88.4 0 48.75-39.65 88.4-88.4 88.4zm0-172.95c-46.62 0-84.55 37.93-84.55 84.55s37.93 84.55 84.55 84.55 84.55-37.93 84.55-84.55-37.93-84.55-84.55-84.55z"/><path fill="#3982C2" d="M186.5 255.95c-37.94 0-68.8-30.86-68.8-68.8s30.86-68.8 68.8-68.8 68.8 30.86 68.8 68.8-30.87 68.8-68.8 68.8zm0-133.74c-35.8 0-64.94 29.14-64.94 64.95 0 35.8 29.13 64.94 64.94 64.94 35.8 0 64.94-29.14 64.94-64.95 0-35.8-29.13-64.94-64.94-64.94z"/><path fill="#63A1D7" d="M235.53 237.53c-5.26 0-9.53 4.27-9.53 9.53 0 5.27 9.53 14.34 9.53 14.34s9.53-9.07 9.53-14.34c0-5.26-4.27-9.53-9.53-9.53zm0 13.62c-2.26 0-4.1-1.83-4.1-4.1 0-2.24 1.84-4.07 4.1-4.07 2.25 0 4.08 1.83 4.08 4.08 0 2.26-1.8 4.1-4.07 4.1z"/></g><path id="Imported-Layers" fill="#F78B20" d="M208.95 181.5H192.1l6.74-27.5L155 193.7h16.86l-6.74 27.5 43.83-39.7"/><g id="Imported-Layers"><path fill="#9BCA3E" d="M259 151c0 5.52 4.48 10 10 10s10-4.48 10-10-4.48-10-10-10-10 4.48-10 10"/><path stroke="#2F7BBF" stroke-width="2.4" d="M265 151.5c0 2.2 1.8 4 4 4s4-1.8 4-4"/><path fill="#2F7BBF" d="M264 146h3v3h-3v-3z"/><path fill="#2F7BBF" d="M271 146h3v3h-3v-3z"/></g><path fill="#63A1D7" d="M86.53 154c-5.26 0-9.53 4.27-9.53 9.53s9.53 14.34 9.53 14.34 9.53-9.08 9.53-14.34S91.8 154 86.53 154zm0 13.6c-2.26 0-4.1-1.8-4.1-4.07 0-2.26 1.84-4.1 4.1-4.1 2.25 0 4.08 1.84 4.08 4.1 0 2.25-1.8 4.08-4.07 4.08zM310.3 219h-17.54L289 231.52v12.53h25.05v-12.53L310.3 219zm-18.8 15.03h20.05v7.5H291.5v-7.5zm15.04 2.5h2.5v2.5h-2.5v-2.5z"/></g></g></g></g></g></svg>